<svg width="24" height="25" viewBox="0 0 24 25" fill="none" xmlns="http://www.w3.org/2000/svg">
<rect x="1" y="1.79346" width="22" height="22" rx="11" stroke="#E2E8F0" stroke-width="2"/>
<path d="M11.9098 15.8095L11.5858 18.8965C11.572 19.0271 11.5326 19.1537 11.4699 19.269C11.4072 19.3844 11.3224 19.4863 11.2203 19.5689C11.1182 19.6515 11.0008 19.7132 10.8749 19.7504C10.7489 19.7877 10.6169 19.7997 10.4863 19.786C10.3557 19.7722 10.2291 19.7328 10.1137 19.6701C9.99833 19.6074 9.89643 19.5225 9.81384 19.4204C9.73124 19.3183 9.66956 19.201 9.63232 19.075C9.59508 18.9491 9.58301 18.8171 9.5968 18.6865L10.3198 11.8035H7.0098C6.74419 11.8035 6.48945 11.6979 6.30163 11.5101C6.11382 11.3223 6.0083 11.0676 6.0083 10.802C6.0083 10.5363 6.11382 10.2816 6.30163 10.0938C6.48945 9.90597 6.74419 9.80046 7.0098 9.80046H17.0098C17.2754 9.80046 17.5302 9.90597 17.718 10.0938C17.9058 10.2816 18.0113 10.5363 18.0113 10.802C18.0113 11.0676 17.9058 11.3223 17.718 11.5101C17.5302 11.6979 17.2754 11.8035 17.0098 11.8035H13.6998L14.4228 18.6885C14.4411 18.8214 14.4326 18.9566 14.3976 19.0862C14.3626 19.2157 14.3019 19.3369 14.2192 19.4426C14.1364 19.5482 14.0333 19.6361 13.9159 19.7011C13.7985 19.7661 13.6692 19.8068 13.5357 19.8208C13.4023 19.8348 13.2674 19.8219 13.139 19.7827C13.0107 19.7435 12.8915 19.679 12.7886 19.5928C12.6857 19.5067 12.6012 19.4007 12.5401 19.2813C12.479 19.1618 12.4425 19.0313 12.4328 18.8975L12.1098 15.8095H11.9098ZM12.0098 9.79946C10.9048 9.79946 10.0098 8.90246 10.0098 7.79646C10.0098 6.69046 10.9048 5.79346 12.0098 5.79346C13.1148 5.79346 14.0098 6.69046 14.0098 7.79646C14.0101 8.32725 13.7995 8.83642 13.4245 9.21202C13.0494 9.58763 12.5406 9.79893 12.0098 9.79946Z" fill="white"/>
</svg>
