<svg width="65" height="65" viewBox="0 0 65 65" fill="none" xmlns="http://www.w3.org/2000/svg">
<path d="M32.3335 46.5C31.9853 46.5 31.6432 46.409 31.341 46.2362L13.8335 36.23C13.6814 36.1422 13.5088 36.0959 13.3331 36.096C13.1575 36.0961 12.9849 36.1424 12.8329 36.2304C12.6808 36.3183 12.5546 36.4447 12.4669 36.597C12.3793 36.7492 12.3332 36.9218 12.3335 37.0975V46.5C12.3332 46.8569 12.4284 47.2075 12.6093 47.5152C12.7902 47.8229 13.0502 48.0766 13.3622 48.25L31.3622 58.25C31.6594 58.415 31.9936 58.5017 32.3335 58.5017C32.6734 58.5017 33.0076 58.415 33.3047 58.25L51.3047 48.25C51.6168 48.0766 51.8768 47.8229 52.0577 47.5152C52.2386 47.2075 52.3338 46.8569 52.3335 46.5V37.0975C52.3338 36.9218 52.2877 36.7492 52.2001 36.597C52.1124 36.4447 51.9862 36.3183 51.8341 36.2304C51.6821 36.1424 51.5095 36.0961 51.3339 36.096C51.1582 36.0959 50.9856 36.1422 50.8335 36.23L33.326 46.2362C33.0238 46.409 32.6816 46.5 32.3335 46.5Z" fill="#FACC15"/>
<path d="M62.3236 24.3125C62.3236 24.3125 62.3236 24.3025 62.3236 24.2988C62.2913 23.9817 62.1836 23.677 62.0097 23.41C61.8358 23.143 61.6005 22.9214 61.3236 22.7638L33.3236 6.76376C33.0214 6.591 32.6792 6.50012 32.3311 6.50012C31.983 6.50012 31.6409 6.591 31.3386 6.76376L3.33861 22.7638C3.03259 22.9387 2.77825 23.1915 2.60136 23.4964C2.42447 23.8013 2.3313 24.1475 2.3313 24.5C2.3313 24.8525 2.42447 25.1988 2.60136 25.5037C2.77825 25.8086 3.03259 26.0613 3.33861 26.2363L31.3386 42.2363C31.6409 42.409 31.983 42.4999 32.3311 42.4999C32.6792 42.4999 33.0214 42.409 33.3236 42.2363L57.9586 28.16C57.9967 28.138 58.0399 28.1265 58.0839 28.1265C58.1278 28.1266 58.171 28.1382 58.209 28.1603C58.2471 28.1823 58.2786 28.214 58.3005 28.2522C58.3224 28.2903 58.3338 28.3335 58.3336 28.3775V46.4438C58.3336 47.52 59.1611 48.4438 60.2374 48.4975C60.5078 48.5105 60.778 48.4685 61.0317 48.374C61.2854 48.2795 61.5173 48.1345 61.7133 47.9477C61.9093 47.761 62.0653 47.5364 62.172 47.2875C62.2786 47.0387 62.3336 46.7707 62.3336 46.5V24.5C62.3335 24.4374 62.3301 24.3748 62.3236 24.3125Z" fill="#FB923C"/>
</svg>
