<svg width="124" height="206" viewBox="0 0 124 206" fill="none" xmlns="http://www.w3.org/2000/svg">
<path fill-rule="evenodd" clip-rule="evenodd" d="M3.02548 151.353C20.0841 138.335 -13.9032 126.271 -0.411663 112.268C37.3991 73.0251 -14.1609 70.7979 8.18187 49.3145C43.0689 15.7693 123.67 102.888 123.67 118.317C123.67 132.728 118.227 141.614 102.759 151.353C87.2911 161.092 76.4823 168.048 69.3736 179.692C62.3705 191.163 50.8618 206 21.9312 206C11.6134 206 -29.9155 201.417 -33.9255 187.668C-37.1108 176.746 -7.85934 159.66 3.02548 151.353Z" fill="#FACC15"/>
<g clip-path="url(#clip0_3_2154)">
<path d="M12.2771 47.1491L13.4144 46.5512L13.1972 47.8177L14.1177 48.7146L12.846 48.8994L12.2771 50.0519L11.7083 48.8994L10.4367 48.7146L11.357 47.8177L11.1396 46.5512L12.2771 47.1491Z" fill="#FB923C"/>
</g>
<g clip-path="url(#clip1_3_2154)">
<path d="M14.014 121.467L14.9076 120.997L14.737 121.992L15.4602 122.697L14.4611 122.842L14.014 123.748L13.5671 122.842L12.568 122.697L13.2911 121.992L13.1203 120.997L14.014 121.467Z" fill="#FB923C"/>
</g>
<g clip-path="url(#clip2_3_2154)">
<path d="M4.84392 65.2426C5.35271 65.2426 5.76514 65.6551 5.76514 66.1639C5.76514 66.6727 5.35271 67.0851 4.84392 67.0851C4.33513 67.0851 3.9227 66.6727 3.9227 66.1639C3.9227 65.6551 4.33513 65.2426 4.84392 65.2426Z" fill="#FB923C"/>
</g>
<g clip-path="url(#clip3_3_2154)">
<path d="M5.31217 29.5773C5.89364 29.5773 6.36499 30.0487 6.36499 30.6302C6.36499 31.2116 5.89364 31.683 5.31217 31.683C4.7307 31.683 4.25935 31.2116 4.25935 30.6302C4.25935 30.0487 4.7307 29.5773 5.31217 29.5773Z" fill="#FB923C"/>
</g>
<g clip-path="url(#clip4_3_2154)">
<path d="M10.8556 162.625C11.6551 162.625 12.3032 163.273 12.3032 164.073C12.3032 164.872 11.6551 165.52 10.8556 165.52C10.0561 165.52 9.40796 164.872 9.40796 164.073C9.40796 163.273 10.0561 162.625 10.8556 162.625Z" fill="#FB923C"/>
</g>
<g clip-path="url(#clip5_3_2154)">
<path d="M10.698 91.3813C10.9887 91.3813 11.2244 91.6169 11.2244 91.9077C11.2244 92.1984 10.9887 92.4341 10.698 92.4341C10.4072 92.4341 10.1715 92.1984 10.1715 91.9077C10.1715 91.6169 10.4072 91.3813 10.698 91.3813Z" fill="#FB923C"/>
</g>
<path d="M-0.159554 132.616V133.603C-0.159554 133.655 -0.138756 133.705 -0.101736 133.742C-0.0647155 133.779 -0.0145049 133.8 0.0378499 133.8C0.0902046 133.8 0.140415 133.779 0.177436 133.742C0.214456 133.705 0.235254 133.655 0.235254 133.603V132.616H1.22227C1.27463 132.616 1.32484 132.595 1.36186 132.558C1.39888 132.521 1.41968 132.471 1.41968 132.418C1.41968 132.366 1.39888 132.316 1.36186 132.279C1.32484 132.242 1.27463 132.221 1.22227 132.221H0.235254V131.234C0.235254 131.182 0.214456 131.131 0.177436 131.094C0.140415 131.057 0.0902046 131.037 0.0378499 131.037C-0.0145049 131.037 -0.0647155 131.057 -0.101736 131.094C-0.138756 131.131 -0.159554 131.182 -0.159554 131.234V132.221H-1.14657C-1.19893 132.221 -1.24914 132.242 -1.28616 132.279C-1.32318 132.316 -1.34398 132.366 -1.34398 132.418C-1.34398 132.471 -1.32318 132.521 -1.28616 132.558C-1.24914 132.595 -1.19893 132.616 -1.14657 132.616H-0.159554Z" fill="#FB923C"/>
<g clip-path="url(#clip6_3_2154)">
<path d="M5.18094 109.978V110.504C5.18094 110.532 5.19203 110.559 5.21177 110.578C5.23152 110.598 5.2583 110.609 5.28622 110.609C5.31414 110.609 5.34092 110.598 5.36066 110.578C5.38041 110.559 5.3915 110.532 5.3915 110.504V109.978H5.91791C5.94583 109.978 5.97261 109.966 5.99236 109.947C6.0121 109.927 6.02319 109.9 6.02319 109.872C6.02319 109.844 6.0121 109.818 5.99236 109.798C5.97261 109.778 5.94583 109.767 5.91791 109.767H5.3915V109.241C5.3915 109.213 5.38041 109.186 5.36066 109.166C5.34092 109.146 5.31414 109.135 5.28622 109.135C5.2583 109.135 5.23152 109.146 5.21177 109.166C5.19203 109.186 5.18094 109.213 5.18094 109.241V109.767H4.65453C4.6266 109.767 4.59982 109.778 4.58008 109.798C4.56034 109.818 4.54924 109.844 4.54924 109.872C4.54924 109.9 4.56034 109.927 4.58008 109.947C4.59982 109.966 4.6266 109.978 4.65453 109.978H5.18094Z" fill="#FB923C"/>
</g>
<g clip-path="url(#clip7_3_2154)">
<path d="M0.0537534 13.0443V13.8339C0.0537534 13.8758 0.0703915 13.916 0.100008 13.9456C0.129624 13.9752 0.169793 13.9918 0.211676 13.9918C0.25356 13.9918 0.293729 13.9752 0.323345 13.9456C0.352961 13.916 0.3696 13.8758 0.3696 13.8339V13.0443H1.15922C1.2011 13.0443 1.24127 13.0276 1.27088 12.998C1.3005 12.9684 1.31714 12.9282 1.31714 12.8864C1.31714 12.8445 1.3005 12.8043 1.27088 12.7747C1.24127 12.7451 1.2011 12.7284 1.15922 12.7284H0.3696V11.9388C0.3696 11.8969 0.352961 11.8568 0.323345 11.8272C0.293729 11.7975 0.25356 11.7809 0.211676 11.7809C0.169793 11.7809 0.129624 11.7975 0.100008 11.8272C0.0703915 11.8568 0.0537534 11.8969 0.0537534 11.9388V12.7284H-0.735863C-0.777746 12.7284 -0.817915 12.7451 -0.847531 12.7747C-0.877148 12.8043 -0.893786 12.8445 -0.893786 12.8864C-0.893786 12.9282 -0.877148 12.9684 -0.847531 12.998C-0.817915 13.0276 -0.777746 13.0443 -0.735863 13.0443H0.0537534Z" fill="#FB923C"/>
</g>
<path d="M3.96349 181.473L3.26566 182.171C3.24681 182.19 3.23177 182.211 3.22142 182.235C3.21108 182.26 3.20563 182.285 3.2054 182.312C3.20518 182.338 3.21017 182.364 3.2201 182.388C3.23002 182.412 3.24468 182.434 3.26322 182.453C3.28175 182.471 3.30379 182.486 3.32805 182.496C3.35231 182.506 3.37831 182.511 3.40452 182.511C3.43073 182.511 3.45663 182.505 3.48071 182.495C3.5048 182.484 3.52658 182.469 3.54479 182.45L4.24281 181.753L4.94063 182.45C4.95884 182.469 4.98063 182.484 5.00471 182.495C5.0288 182.505 5.0547 182.511 5.08091 182.511C5.10712 182.511 5.13312 182.506 5.15738 182.496C5.18164 182.486 5.20368 182.471 5.22221 182.453C5.24075 182.434 5.2554 182.412 5.26533 182.388C5.27525 182.364 5.28025 182.338 5.28002 182.312C5.27979 182.285 5.27435 182.26 5.264 182.235C5.25366 182.211 5.23862 182.19 5.21976 182.171L4.52194 181.474L5.21976 180.776C5.23862 180.757 5.25366 180.736 5.264 180.711C5.27435 180.687 5.27979 180.661 5.28002 180.635C5.28025 180.609 5.27525 180.583 5.26533 180.559C5.2554 180.535 5.24075 180.512 5.22221 180.494C5.20368 180.475 5.18164 180.461 5.15738 180.451C5.13312 180.441 5.10712 180.436 5.08091 180.436C5.0547 180.436 5.0288 180.442 5.00471 180.452C4.98063 180.462 4.95884 180.478 4.94063 180.496L4.24281 181.194L3.54479 180.496C3.52658 180.478 3.5048 180.462 3.48071 180.452C3.45663 180.442 3.43073 180.436 3.40452 180.436C3.37831 180.436 3.35231 180.441 3.32805 180.451C3.30379 180.461 3.28175 180.475 3.26322 180.494C3.24468 180.512 3.23002 180.535 3.2201 180.559C3.21017 180.583 3.20518 180.609 3.2054 180.635C3.20563 180.661 3.21108 180.687 3.22142 180.711C3.23177 180.736 3.24681 180.757 3.26566 180.776L3.96349 181.474V181.473Z" fill="#FB923C"/>
<defs>
<clipPath id="clip0_3_2154">
<rect width="4.42185" height="4.42185" fill="white" transform="matrix(-1 0 0 -1 14.488 50.5353)"/>
</clipPath>
<clipPath id="clip1_3_2154">
<rect width="3.47431" height="3.47431" fill="white" transform="matrix(-1 0 0 -1 15.7512 124.127)"/>
</clipPath>
<clipPath id="clip2_3_2154">
<rect width="2.21092" height="2.21092" fill="white" transform="matrix(-1 0 0 -1 5.94946 67.2753)"/>
</clipPath>
<clipPath id="clip3_3_2154">
<rect width="2.52677" height="2.52677" fill="white" transform="matrix(-1 0 0 -1 6.57544 31.9004)"/>
</clipPath>
<clipPath id="clip4_3_2154">
<rect width="3.47431" height="3.47431" fill="white" transform="matrix(-1 0 0 -1 12.5928 165.819)"/>
</clipPath>
<clipPath id="clip5_3_2154">
<rect width="1.26339" height="1.26339" fill="white" transform="matrix(-1 0 0 -1 11.3296 92.5428)"/>
</clipPath>
<clipPath id="clip6_3_2154">
<rect width="2.52677" height="2.52677" fill="white" transform="matrix(-1 0 0 -1 6.5918 111.178)"/>
</clipPath>
<clipPath id="clip7_3_2154">
<rect width="3.79016" height="3.79016" fill="white" transform="matrix(-1 0 0 -1 2.16992 14.8446)"/>
</clipPath>
</defs>
</svg>
