<svg width="24" height="25" viewBox="0 0 24 25" fill="none" xmlns="http://www.w3.org/2000/svg">
<path d="M12 22.2661C6.477 22.2661 2 17.7891 2 12.2661C2 6.74311 6.477 2.26611 12 2.26611C17.523 2.26611 22 6.74311 22 12.2661C22 17.7891 17.523 22.2661 12 22.2661ZM12 20.2661C14.1217 20.2661 16.1566 19.4233 17.6569 17.923C19.1571 16.4227 20 14.3878 20 12.2661C20 10.1444 19.1571 8.10955 17.6569 6.60926C16.1566 5.10897 14.1217 4.26611 12 4.26611C9.87827 4.26611 7.84344 5.10897 6.34315 6.60926C4.84285 8.10955 4 10.1444 4 12.2661C4 14.3878 4.84285 16.4227 6.34315 17.923C7.84344 19.4233 9.87827 20.2661 12 20.2661ZM16.126 14.0121L12.071 16.9101C11.166 17.5561 9.941 17.2991 9.334 16.3341C9.11494 15.9832 8.99918 15.5777 9 15.1641V9.36811C9 8.20811 9.883 7.26611 10.972 7.26611C11.363 7.26611 11.746 7.39011 12.071 7.62211L16.126 10.5201C17.031 11.1671 17.272 12.4721 16.666 13.4371C16.5251 13.6621 16.3417 13.8574 16.126 14.0121ZM10.972 9.36811V15.1641L15.027 12.2661L10.972 9.36811Z" fill="#2563EB"/>
</svg>
